# Blender 3.5.1
# www.blender.org
mtllib rock_1.mtl
o rock
v -0.656246 -0.387851 0.610270
v -0.165079 -0.356466 -0.428287
v -0.357424 0.456429 -0.149536
v 0.405151 0.327468 0.323660
v 0.319301 0.361508 -0.673583
v 0.650851 -0.473706 -0.427412
v 0.410898 -0.503529 0.425389
v -0.135722 0.720179 0.239881
v -0.597697 -0.604652 -0.131202
v -0.434853 0.097429 0.027849
v -0.193338 0.228093 0.874883
v -0.188533 0.552192 -0.609685
v 0.194238 -0.500742 -0.518250
v 0.030235 -0.727495 0.625816
v 0.661103 -0.787362 0.052458
v 0.575659 0.476311 -0.142729
v 0.571632 -0.012811 -0.064356
v 0.634010 -0.103845 0.627551
v 0.023700 -0.013178 -0.466050
v -0.382392 0.416703 0.411683
v 0.173671 -0.203112 0.827850
v 0.032315 -1.021004 -0.022317
v 0.136310 0.929633 -0.144284
v 0.812077 -0.216536 0.174509
v 0.388037 -0.003676 -0.358828
v -0.252451 0.001945 -0.230501
v -0.323561 0.649406 0.031427
v 0.133810 0.522475 0.293315
v -0.759993 -0.620496 0.241166
v -0.332414 -0.449961 -0.305347
v -0.709353 -0.019880 0.289387
v -0.333445 0.227091 -0.083568
v -0.413119 -0.074457 0.756753
v 0.150998 0.341242 0.633884
v -0.341617 0.521009 -0.360021
v 0.082466 0.482198 -0.717686
v -0.013065 -0.447072 -0.495844
v 0.418417 -0.499871 -0.489149
v -0.328290 -0.744666 0.777573
v 0.256663 -0.587076 0.486507
v 0.733730 -0.726398 -0.262638
v 0.514381 -0.640943 0.296047
v 0.445350 0.396598 0.101664
v 0.523698 0.461947 -0.481802
v 0.388907 0.094128 0.116239
v 0.716683 -0.209624 -0.313289
v 0.528047 0.142297 0.493407
v 0.496305 -0.347044 0.507604
v -0.109718 -0.200656 -0.590135
v 0.157051 0.148626 -0.560403
v -0.330787 0.372442 0.615981
v -0.293641 0.588142 0.370412
v -0.423634 0.250586 0.239696
v 0.097357 -0.420444 0.755398
v 0.374575 -0.140093 0.761228
v 0.020565 -0.016898 0.950773
v -0.254351 -0.875551 -0.049413
v 0.086982 -0.809899 -0.343758
v 0.351191 -1.046949 0.003583
v 0.004998 -1.028988 0.348861
v 0.001451 0.861456 0.077331
v 0.386308 0.782462 -0.129219
v -0.018548 0.928831 -0.455941
v 0.723861 -0.081087 0.045450
v 0.785952 -0.148888 0.377374
v 0.854988 -0.473872 0.119347
v 0.178804 -0.005321 -0.364077
v 0.499996 0.170892 -0.245626
v 0.510205 0.008153 -0.218384
v 0.259338 -0.185384 -0.404597
v -0.305864 0.021822 -0.106993
v -0.248582 0.197964 -0.424257
v -0.198454 -0.004388 -0.466270
v -0.544081 -0.190192 -0.270970
v -0.487614 0.142005 0.472335
v -0.056914 0.470168 0.478137
v -0.342498 0.390731 0.112261
v -0.192813 -0.339769 0.943421
v 0.306947 -0.369673 0.605210
v 0.314401 0.146671 0.798960
v -0.324655 -0.937564 0.350930
v -0.137555 -0.633214 -0.294827
v 0.381477 -0.877312 -0.329943
v 0.279454 -0.836225 0.299957
v -0.233508 0.856726 -0.179991
v 0.281528 0.667719 0.147159
v 0.318126 0.765104 -0.514310
v 0.808974 -0.339790 -0.117312
v 0.621601 0.051073 0.234313
v 0.687339 -0.415693 0.360603
v 0.099321 -0.181724 -0.454454
v 0.411390 0.149510 -0.492520
v 0.358647 0.150497 -0.006350
v 0.492007 -0.188853 -0.413128
v -0.661593 -0.154420 -0.018216
v -0.280624 0.189228 -0.218411
v -0.091907 0.180318 -0.629960
v -0.360989 -0.203067 -0.466358
vn -0.8493 -0.0874 0.5207
vn -0.6627 0.1946 0.7232
vn -0.8405 0.4611 0.2845
vn -0.8930 0.4489 0.0316
vn -0.2923 0.5357 0.7922
vn -0.5361 0.6553 0.5321
vn -0.8046 0.5623 0.1911
vn -0.8562 0.4992 -0.1336
vn -0.7693 0.4833 -0.4178
vn 0.7500 0.6174 0.2374
vn 0.3795 0.6886 0.6178
vn 0.1301 0.8072 0.5758
vn 0.3155 0.7804 0.5399
vn -0.2490 0.7595 0.6010
vn -0.5255 0.7331 0.4316
vn -0.9973 0.0216 -0.0697
vn -0.9535 0.0168 -0.3008
vn -0.9535 0.2952 -0.0610
vn -0.8777 0.4530 0.1560
vn -0.2677 -0.5787 0.7703
vn -0.1088 -0.2005 0.9736
vn 0.4020 -0.5980 0.6934
vn 0.4807 -0.4394 0.7589
vn 0.4554 -0.3260 0.8285
vn 0.1236 0.1218 0.9848
vn 0.4320 -0.5184 0.7380
vn 0.4728 -0.5343 0.7008
vn 0.5126 -0.5253 0.6792
vn 0.5465 -0.4906 0.6787
vn 0.7427 0.0128 0.6695
vn 0.5468 -0.2164 0.8088
vn 0.4853 0.4472 0.7513
vn 0.7127 0.6444 0.2771
vn -0.9034 -0.4285 -0.0178
vn -0.4171 -0.8874 0.1962
vn -0.6867 -0.4610 -0.5621
vn -0.4399 -0.7739 -0.4556
vn -0.1651 -0.9520 -0.2576
vn 0.1093 -0.9259 0.3615
vn -0.4249 -0.4518 -0.7844
vn -0.3918 -0.5152 -0.7623
vn -0.2732 -0.4789 -0.8343
vn -0.1771 -0.2700 -0.9464
vn -0.0515 -0.1305 -0.9901
vn -0.2313 -0.6286 -0.7425
vn 0.2142 -0.7275 -0.6518
vn 0.3261 -0.9448 0.0320
vn 0.1760 -0.1011 -0.9792
vn 0.5740 -0.0675 -0.8161
vn 0.7426 -0.4890 -0.4577
vn 0.7054 -0.6677 0.2379
vn 0.4703 -0.6591 0.5868
vn 0.4821 -0.5492 0.6826
vn -0.6687 0.7435 -0.0072
vn -0.9412 0.1285 -0.3123
vn -0.0327 0.8597 0.5097
vn 0.2291 0.9615 0.1518
vn -0.1847 0.8665 -0.4637
vn -0.6283 0.2355 -0.7414
vn 0.9034 0.1060 0.4156
vn 0.5234 0.5926 0.6122
vn 0.9780 0.1212 0.1696
vn 0.6823 0.7086 0.1801
vn 0.4155 -0.1388 -0.8989
vn -0.0196 0.1007 -0.9947
vn 0.4890 0.6570 -0.5738
vn 0.8499 0.1124 -0.5147
vn 0.7111 0.4218 -0.5625
vn 0.9586 0.1408 -0.2474
vn 0.5895 0.7792 -0.2130
vn 0.7600 0.6269 -0.1714
vn 0.9633 0.2499 0.0983
vn 0.9408 -0.2507 0.2283
vn 0.6888 0.7153 -0.1177
vn 0.8284 0.5349 -0.1663
vn 0.9074 0.1745 0.3824
vn 0.6374 -0.4348 0.6361
vn -0.0369 -0.0216 -0.9991
vn 0.2733 0.1322 -0.9528
vn 0.2610 -0.2423 -0.9345
vn 0.3586 -0.2507 -0.8992
vn 0.5651 -0.0006 -0.8250
vn 0.1353 0.2925 -0.9467
vn 0.2241 -0.5787 -0.7842
vn 0.6256 -0.5064 -0.5934
vn 0.9625 -0.2671 -0.0472
vn 0.9820 0.1280 0.1390
vn 0.7545 0.5692 -0.3266
vn 0.3130 0.4112 -0.8561
vn -0.8607 0.3562 -0.3637
vn -0.7897 0.3959 -0.4687
vn -0.8515 0.3707 -0.3708
vn -0.7427 0.3102 -0.5934
vn -0.9344 -0.1493 -0.3235
vn -0.8714 -0.1504 -0.4669
vn -0.3403 -0.3749 -0.8623
vn -0.5995 0.1777 -0.7804
vn -0.5589 0.0917 -0.8241
s 1
f 1//1 33//2 75//3 31//4
f 33//2 11//5 51//6 75//3
f 75//3 51//6 20//7 53//8
f 31//4 75//3 53//8 10//9
f 4//10 28//11 76//12 34//13
f 28//11 8//14 52//15 76//12
f 76//12 52//15 20//7 51//6
f 34//13 76//12 51//6 11//5
f 3//16 32//17 77//18 27//19
f 32//17 10//9 53//8 77//18
f 77//18 53//8 20//7 52//15
f 27//19 77//18 52//15 8//14
f 1//1 39//20 78//21 33//2
f 39//20 14//22 54//23 78//21
f 78//21 54//23 21//24 56//25
f 33//2 78//21 56//25 11//5
f 7//26 48//27 79//28 40//29
f 48//27 18//30 55//31 79//28
f 79//28 55//31 21//24 54//23
f 40//29 79//28 54//23 14//22
f 4//10 34//13 80//32 47//33
f 34//13 11//5 56//25 80//32
f 80//32 56//25 21//24 55//31
f 47//33 80//32 55//31 18//30
f 1//1 29//34 81//35 39//20
f 29//34 9//36 57//37 81//35
f 81//35 57//37 22//38 60//39
f 39//20 81//35 60//39 14//22
f 9//36 30//40 82//41 57//37
f 30//40 2//42 37//43 82//41
f 82//41 37//43 13//44 58//45
f 57//37 82//41 58//45 22//38
f 22//38 58//45 83//46 59//47
f 58//45 13//44 38//48 83//46
f 83//46 38//48 6//49 41//50
f 59//47 83//46 41//50 15//51
f 14//22 60//39 84//52 40//29
f 60//39 22//38 59//47 84//52
f 84//52 59//47 15//51 42//53
f 40//29 84//52 42//53 7//26
f 3//16 27//19 85//54 35//55
f 27//19 8//14 61//56 85//54
f 85//54 61//56 23//57 63//58
f 35//55 85//54 63//58 12//59
f 4//10 43//60 86//61 28//11
f 43//60 16//62 62//63 86//61
f 86//61 62//63 23//57 61//56
f 28//11 86//61 61//56 8//14
f 5//64 36//65 87//66 44//67
f 36//65 12//59 63//58 87//66
f 87//66 63//58 23//57 62//63
f 44//67 87//66 62//63 16//62
f 6//49 46//68 88//69 41//50
f 46//68 17//70 64//71 88//69
f 88//69 64//71 24//72 66//73
f 41//50 88//69 66//73 15//51
f 4//10 47//33 89//74 45//75
f 47//33 18//30 65//76 89//74
f 89//74 65//76 24//72 64//71
f 45//75 89//74 64//71 17//70
f 7//26 42//53 90//77 48//27
f 42//53 15//51 66//73 90//77
f 90//77 66//73 24//72 65//76
f 48//27 90//77 65//76 18//30
f 2//42 49//78 91//79 37//43
f 49//78 19//80 67//81 91//79
f 91//79 67//81 25//82 70//83
f 37//43 91//79 70//83 13//44
f 19//80 50//84 92//85 67//81
f 50//84 5//64 44//67 92//85
f 92//85 44//67 16//62 68//86
f 67//81 92//85 68//86 25//82
f 25//82 68//86 93//87 69//88
f 68//86 16//62 43//60 93//87
f 93//87 43//60 4//10 45//75
f 69//88 93//87 45//75 17//70
f 13//44 70//83 94//89 38//48
f 70//83 25//82 69//88 94//89
f 94//89 69//88 17//70 46//68
f 38//48 94//89 46//68 6//49
f 1//1 31//4 95//90 29//34
f 31//4 10//9 71//91 95//90
f 95//90 71//91 26//92 74//93
f 29//34 95//90 74//93 9//36
f 10//9 32//17 96//94 71//91
f 32//17 3//16 35//55 96//94
f 96//94 35//55 12//59 72//95
f 71//91 96//94 72//95 26//92
f 26//92 72//95 97//96 73//97
f 72//95 12//59 36//65 97//96
f 97//96 36//65 5//64 50//84
f 73//97 97//96 50//84 19//80
f 9//36 74//93 98//98 30//40
f 74//93 26//92 73//97 98//98
f 98//98 73//97 19//80 49//78
f 30//40 98//98 49//78 2//42
